<?xml version="1.0" encoding="iso-8859-1"?>
<!-- Generator: Adobe Illustrator 19.0.0, SVG Export Plug-In . SVG Version: 6.00 Build 0)  -->
<svg version="1.1" id="Layer_1" xmlns="http://www.w3.org/2000/svg" xmlns:xlink="http://www.w3.org/1999/xlink" x="0px" y="0px"
	 viewBox="0 0 511.998 511.998" style="enable-background:new 0 0 511.998 511.998;" xml:space="preserve">
<path style="fill:#3C1146;" d="M433.519,370.11H217.331c-22.51,0-40.822-18.312-40.822-40.822V206.274
	c-24.943-21.386-38.885-53.106-37.573-86.21c2.201-55.534,47.416-100.909,102.938-103.297c32.164-1.384,62.251,11.147,83.55,34.131
	c21.299-22.984,51.37-35.49,83.55-34.131c55.52,2.389,100.738,47.764,102.939,103.297c1.406,35.468-14.702,69.352-43.088,90.635
	c-6.093,4.567-14.733,3.329-19.298-2.76c-4.567-6.091-3.332-14.731,2.76-19.298c21.134-15.845,33.126-41.074,32.079-67.485
	c-1.638-41.315-35.275-75.07-76.578-76.847c-28.706-1.256-55.151,12.395-70.811,36.459c-2.545,3.909-6.891,6.266-11.554,6.266
	s-9.009-2.357-11.554-6.266c-15.66-24.066-42.124-37.738-70.811-36.459c-41.303,1.777-74.941,35.532-76.577,76.845
	c-1.048,26.412,10.945,51.641,32.079,67.486c3.472,2.604,5.515,6.689,5.515,11.029v129.618c0,7.308,5.945,13.254,13.254,13.254
	h216.189c7.308,0,13.253-5.945,13.253-13.254v-47.895c0-7.612,6.173-13.784,13.784-13.784s13.784,6.173,13.784,13.784v47.895
	C474.341,351.798,456.029,370.11,433.519,370.11z"/>
<path style="fill:#D4A8B4;" d="M13.858,245.835c1.923-48.524,41.24-87.984,89.757-90.073c25.894-1.115,46.016,4.678,65.815,24.227
	c5.978,5.902,19.857,18.928,20.862,19.681v129.62c0,14.932,12.105,27.038,27.038,27.038h104.374v98.186
	c0,14.932-12.105,27.038-27.038,27.038H78.48c-14.932,0-27.038-12.105-27.038-27.038V324.895
	C27.635,307.046,12.576,278.163,13.858,245.835z"/>
<path style="fill:#3C1146;" d="M294.668,495.335H78.48c-22.51,0-40.822-18.312-40.822-40.822V331.499
	C12.715,310.112-1.227,278.39,0.085,245.287c2.201-55.532,47.418-100.906,102.939-103.297c2.223-0.095,4.419-0.143,6.525-0.143
	c28.264,0,49.72,8.739,69.567,28.335c5.599,5.53,17.911,17.086,19.862,18.786c3.219,2.612,5.1,6.541,5.1,10.705v129.618
	c0,7.308,5.945,13.254,13.254,13.254h104.374c7.612,0,13.784,6.173,13.784,13.784v98.186
	C335.489,477.023,317.177,495.335,294.668,495.335z M109.548,169.414c-1.713,0-3.509,0.04-5.34,0.119
	c-41.303,1.78-74.941,35.534-76.578,76.848c-1.048,26.412,10.945,51.641,32.079,67.486c3.472,2.604,5.515,6.689,5.515,11.029
	v129.618c0,7.308,5.945,13.254,13.254,13.254h216.189c7.308,0,13.252-5.945,13.252-13.254v-84.402h-90.59
	c-22.51,0-40.822-18.312-40.822-40.822V205.758c-5.771-5.361-14.136-13.367-16.763-15.961
	C145.082,175.319,130.539,169.414,109.548,169.414z"/>
<g>
</g>
<g>
</g>
<g>
</g>
<g>
</g>
<g>
</g>
<g>
</g>
<g>
</g>
<g>
</g>
<g>
</g>
<g>
</g>
<g>
</g>
<g>
</g>
<g>
</g>
<g>
</g>
<g>
</g>
</svg>
